<svg width="22" height="22" viewBox="0 0 22 22" fill="none" xmlns="http://www.w3.org/2000/svg">
<path d="M9.76367 21.5449C8.94336 21.5449 8.30859 21.0469 8.13281 20.2754L7.73242 18.5469L7.46875 18.4492L5.96484 19.377C5.29102 19.7969 4.49023 19.6992 3.91406 19.123L2.54688 17.7559C1.96094 17.1797 1.87305 16.3789 2.29297 15.7051L3.23047 14.2109L3.13281 13.9668L1.41406 13.5664C0.642578 13.3809 0.144531 12.7363 0.144531 11.9355V10.0117C0.144531 9.21094 0.632812 8.57617 1.41406 8.38086L3.11328 7.9707L3.2207 7.7168L2.2832 6.22266C1.86328 5.54883 1.95117 4.74805 2.53711 4.16211L3.9043 2.79492C4.4707 2.22852 5.27148 2.12109 5.95508 2.54102L7.45898 3.45898L7.73242 3.35156L8.13281 1.62305C8.30859 0.851562 8.94336 0.353516 9.76367 0.353516H11.7363C12.5469 0.353516 13.1816 0.851562 13.3672 1.62305L13.7676 3.35156L14.041 3.45898L15.5449 2.54102C16.2188 2.12109 17.0195 2.22852 17.5859 2.79492L18.9531 4.16211C19.5488 4.74805 19.627 5.54883 19.207 6.22266L18.2793 7.7168L18.377 7.9707L20.0859 8.38086C20.8574 8.57617 21.3555 9.21094 21.3555 10.0117V11.9355C21.3555 12.7363 20.8477 13.3809 20.0859 13.5664L18.3574 13.9668L18.2695 14.2109L19.1973 15.7051C19.6172 16.3789 19.5293 17.1797 18.9434 17.7559L17.5762 19.123C17.0098 19.6992 16.209 19.7969 15.5254 19.377L14.0215 18.4492L13.7676 18.5469L13.3672 20.2754C13.1816 21.0469 12.5469 21.5449 11.7363 21.5449H9.76367ZM9.99805 19.7773H11.502C11.668 19.7773 11.7461 19.709 11.7656 19.5527L12.3516 17.1504C12.9961 17.0039 13.5527 16.7598 14.0312 16.457L16.1406 17.7559C16.2578 17.834 16.3848 17.834 16.502 17.707L17.5371 16.6621C17.6445 16.5645 17.6445 16.4473 17.5664 16.3203L16.2773 14.2109C16.541 13.752 16.8047 13.166 16.9512 12.5508L19.3633 11.9746C19.5098 11.9453 19.5879 11.8672 19.5879 11.7012V10.2363C19.5879 10.0605 19.5195 9.99219 19.3633 9.95312L16.9609 9.38672C16.8145 8.73242 16.5215 8.12695 16.2871 7.70703L17.5762 5.60742C17.6641 5.4707 17.6641 5.35352 17.5469 5.24609L16.502 4.2207C16.3848 4.10352 16.2871 4.09375 16.1406 4.17188L14.041 5.45117C13.5625 5.17773 12.9863 4.91406 12.3516 4.76758L11.7656 2.3457C11.7461 2.18945 11.668 2.12109 11.502 2.12109H9.99805C9.83203 2.12109 9.75391 2.19922 9.72461 2.3457L9.14844 4.74805C8.5332 4.9043 7.88867 5.17773 7.44922 5.44141L5.34961 4.16211C5.20312 4.08398 5.10547 4.10352 4.97852 4.21094L3.94336 5.23633C3.82617 5.35352 3.82617 5.4707 3.91406 5.60742L5.20312 7.70703C4.96875 8.12695 4.68555 8.73242 4.53906 9.38672L2.12695 9.95312C1.98047 9.99219 1.91211 10.0605 1.91211 10.2363V11.7012C1.91211 11.8672 1.98047 11.9453 2.12695 11.9746L4.53906 12.5508C4.68555 13.166 4.94922 13.752 5.22266 14.2109L3.92383 16.3203C3.83594 16.4473 3.8457 16.5645 3.95312 16.6719L4.98828 17.707C5.10547 17.834 5.23242 17.834 5.34961 17.7559L7.45898 16.457C7.9375 16.7598 8.52344 17.0039 9.14844 17.1504L9.72461 19.5527C9.75391 19.6992 9.83203 19.7773 9.99805 19.7773ZM10.75 14.6504C8.69922 14.6504 7.03906 13 7.03906 10.9492C7.03906 8.89844 8.69922 7.24805 10.75 7.24805C12.791 7.24805 14.4512 8.89844 14.4512 10.9492C14.4512 13 12.791 14.6504 10.75 14.6504ZM10.75 12.9707C11.8633 12.9707 12.7715 12.0723 12.7715 10.9492C12.7715 9.82617 11.8633 8.91797 10.75 8.91797C9.62695 8.91797 8.71875 9.82617 8.71875 10.9492C8.71875 12.0723 9.62695 12.9707 10.75 12.9707Z" fill="#FF8A00"/>
</svg>
