<svg width="25" height="22" viewBox="0 0 25 22" fill="none" xmlns="http://www.w3.org/2000/svg">
<path d="M1.33203 11.2715C0.707031 11.2715 0.326172 10.8418 0.326172 10.334C0.326172 10.0605 0.453125 9.77734 0.707031 9.5625L10.8828 1.01758C11.3125 0.666016 11.7812 0.490234 12.25 0.490234C12.7188 0.490234 13.1875 0.666016 13.6172 1.01758L18.4414 5.08008V3.3418C18.4414 2.91211 18.7344 2.62891 19.1738 2.62891H20.4922C20.9219 2.62891 21.2051 2.91211 21.2051 3.3418V7.39453L23.793 9.5625C24.0469 9.77734 24.1738 10.0605 24.1738 10.334C24.1738 10.8418 23.793 11.2715 23.1777 11.2715C22.875 11.2715 22.6016 11.1152 22.3672 10.9102L12.6699 2.77539C12.5332 2.6582 12.3867 2.60938 12.25 2.60938C12.1133 2.60938 11.9668 2.6582 11.8398 2.77539L2.13281 10.9102C1.89844 11.1152 1.63477 11.2715 1.33203 11.2715ZM3.49023 19.1621V11.6914L11.6445 4.85547C12.0156 4.54297 12.4746 4.5332 12.8457 4.85547L21.0098 11.6914V19.1621C21.0098 20.5684 20.1309 21.4082 18.6855 21.4082H5.80469C4.36914 21.4082 3.49023 20.5684 3.49023 19.1621ZM9.60352 19.5332H14.8965V13.8984C14.8965 13.4395 14.6035 13.1465 14.1445 13.1465H10.3652C9.90625 13.1465 9.60352 13.4395 9.60352 13.8984V19.5332Z" fill="#FF8A00"/>
</svg>
