<svg width="18" height="22" viewBox="0 0 18 22" fill="none" xmlns="http://www.w3.org/2000/svg">
<path d="M4.04492 21.5254C1.95508 21.5254 0.871094 20.4316 0.871094 18.3223V3.58594C0.871094 1.48633 1.95508 0.382812 4.04492 0.382812H8.75195C9.97266 0.382812 10.6465 0.578125 11.4668 1.4082L16.5938 6.62305C17.4434 7.48242 17.6191 8.10742 17.6191 9.46484V18.3223C17.6191 20.4219 16.5352 21.5254 14.4453 21.5254H4.04492ZM4.20117 19.6113H14.2793C15.2266 19.6113 15.7051 19.1133 15.7051 18.2051V9.71875H10.4414C9.05469 9.71875 8.36133 9.04492 8.36133 7.64844V2.29688H4.20117C3.25391 2.29688 2.78516 2.80469 2.78516 3.70312V18.2051C2.78516 19.1133 3.25391 19.6113 4.20117 19.6113ZM10.6172 8.03906H15.4414L10.0508 2.56055V7.46289C10.0508 7.86328 10.2168 8.03906 10.6172 8.03906Z" fill="#FF8A00"/>
</svg>
