<svg width="40" height="20" viewBox="0 0 40 20" fill="none" xmlns="http://www.w3.org/2000/svg">
<path d="M8.68555 9.98828C6.33203 9.98828 4.41797 7.91797 4.41797 5.36914C4.4082 2.85938 6.3418 0.828125 8.68555 0.828125C11.0586 0.828125 12.9629 2.83008 12.9629 5.34961C12.9629 7.9082 11.0488 9.98828 8.68555 9.98828ZM19.75 9.98828C17.3965 9.98828 15.4824 7.91797 15.4824 5.36914C15.4727 2.85938 17.3965 0.828125 19.75 0.828125C22.123 0.828125 24.0176 2.83008 24.0176 5.34961C24.0176 7.9082 22.1035 9.98828 19.75 9.98828ZM30.8145 9.98828C28.4609 9.98828 26.5469 7.91797 26.5469 5.36914C26.5371 2.85938 28.4707 0.828125 30.8145 0.828125C33.1875 0.828125 35.0918 2.83008 35.0918 5.34961C35.0918 7.9082 33.1777 9.98828 30.8145 9.98828ZM8.68555 8.29883C10.0527 8.29883 11.1953 7 11.1953 5.34961C11.1953 3.73828 10.0625 2.51758 8.68555 2.51758C7.31836 2.51758 6.17578 3.75781 6.18555 5.36914C6.18555 7.01953 7.33789 8.29883 8.68555 8.29883ZM19.75 8.29883C21.1172 8.29883 22.25 7 22.25 5.34961C22.25 3.73828 21.127 2.51758 19.75 2.51758C18.3828 2.51758 17.2402 3.75781 17.25 5.36914C17.25 7.01953 18.3926 8.29883 19.75 8.29883ZM30.8145 8.29883C32.1816 8.29883 33.3242 7 33.3242 5.34961C33.3242 3.73828 32.1914 2.51758 30.8145 2.51758C29.4473 2.51758 28.3047 3.75781 28.3145 5.36914C28.3145 7.01953 29.4668 8.29883 30.8145 8.29883ZM2.60156 19.0703C0.912109 19.0703 0.101562 18.5332 0.101562 17.3906C0.101562 14.7246 3.44141 11.1309 8.68555 11.1309C13.9297 11.1309 17.2695 14.7246 17.2695 17.3906C17.2695 18.5332 16.459 19.0703 14.7793 19.0703H2.60156ZM19.75 11.1309C24.9844 11.1309 28.334 14.7246 28.334 17.3906C28.334 18.5332 27.5137 19.0703 25.834 19.0703H18.1387C18.4902 18.5527 18.5977 17.9863 18.5879 17.3809H26.1562C26.3906 17.3809 26.4785 17.3125 26.4785 17.127C26.4785 15.6328 24.0566 12.8203 19.75 12.8203C18.6758 12.8203 17.709 13.0059 16.8887 13.3086C16.5078 12.8398 16.0488 12.4102 15.5312 12.0195C16.7324 11.4727 18.1484 11.1309 19.75 11.1309ZM30.8145 11.1309C36.0586 11.1309 39.3984 14.7246 39.3984 17.3906C39.3984 18.5332 38.5879 19.0703 36.9082 19.0703H29.1934C29.5547 18.5527 29.6523 17.9863 29.6523 17.3809H37.2305C37.4551 17.3809 37.5527 17.3125 37.5527 17.127C37.5527 15.6328 35.1309 12.8203 30.8145 12.8203C29.7402 12.8203 28.7734 13.0059 27.9531 13.3184C27.5723 12.8398 27.1035 12.4102 26.5859 12.0195C27.7969 11.4727 29.2129 11.1309 30.8145 11.1309ZM2.26953 17.3809H15.1016C15.3262 17.3809 15.4238 17.3125 15.4238 17.127C15.4238 15.6328 13.002 12.8203 8.68555 12.8203C4.36914 12.8203 1.95703 15.6328 1.95703 17.127C1.95703 17.3125 2.04492 17.3809 2.26953 17.3809Z" fill="#FF8A00"/>
</svg>
